<?xml version="1.0" encoding="utf-8"?>
<!-- Generated by IcoMoon.io -->
<!DOCTYPE svg PUBLIC "-//W3C//DTD SVG 1.1//EN" "http://www.w3.org/Graphics/SVG/1.1/DTD/svg11.dtd">
<svg version="1.1" xmlns="http://www.w3.org/2000/svg" xmlns:xlink="http://www.w3.org/1999/xlink" width="384" height="384" viewBox="0 0 384 384">
<g id="icomoon-ignore">
</g>
<path fill="#000" d="M373.312 40.703c-14.413 8.742-31.193 15.403-49.075 19.025-15.324-15.2-35.678-24.785-58.271-24.785-0.053 0-0.105 0-0.157 0-43.5 0.198-78.694 35.515-78.694 79.050 0 0.061 0 0.123 0 0.185 0.064 6.21 0.824 12.221 2.205 17.989-65.809-4.025-123.537-35.433-162.074-83.020-7.036 11.013-10.997 24.758-10.997 39.428 0 27.382 13.8 51.541 34.825 65.901-12.63-0.407-24.572-4.023-35.013-9.972l0.386 1.249c0 0.073 0 0.16 0 0.248 0 38.071 26.853 69.871 62.653 77.49-5.625 1.832-12.681 2.832-19.97 2.832-5.096 0-10.078-0.489-14.903-1.422 10.722 31.818 39.685 54.508 74.049 55.222-26.459 21.213-60.51 34.041-97.557 34.041-0.643 0-1.285-0.004-1.926-0.012-2.719 0.173-6.011 0.271-9.326 0.271s-6.607-0.098-9.874-0.291c34.674 22.359 76.572 35.647 121.574 35.647 123.555 0 223.718-100.161 223.718-223.718 0-0.93-0.006-1.857-0.017-2.785l0.002-10.155c15.418-11.335 28.395-24.923 38.724-40.426-12.79 5.472-28.050 9.892-44.060 11.903 15.515-9.929 27.734-25.204 33.622-43.334z"></path>
</svg>
