<?xml version="1.0" encoding="utf-8"?>
<!-- Generated by IcoMoon.io -->
<!DOCTYPE svg PUBLIC "-//W3C//DTD SVG 1.1//EN" "http://www.w3.org/Graphics/SVG/1.1/DTD/svg11.dtd">
<svg version="1.1" xmlns="http://www.w3.org/2000/svg" xmlns:xlink="http://www.w3.org/1999/xlink" width="384" height="384" viewBox="0 0 384 384">
<g id="icomoon-ignore">
</g>
<path fill="#000" d="M302.716 280.956h-21.119v-12.32c0-5.479 4.441-9.92 9.92-9.92h1.28c5.479 0 9.92 4.441 9.92 9.92zM223.999 254.718c-0.254-0.026-0.549-0.040-0.848-0.040-4.624 0-8.43 3.503-8.909 8.001l-0.003 59.557c0.87 4.663 4.908 8.145 9.76 8.145s8.889-3.483 9.75-8.084l0.009-59.579c-0.482-4.536-4.288-8.040-8.912-8.040-0.299 0-0.593 0.015-0.884 0.043zM351.993 221.439v113.275c-0.966 27.427-23.433 49.295-51.008 49.295-0.46 0-0.92-0.006-1.377-0.018l-215.283 0.002c-0.388 0.011-0.846 0.017-1.305 0.017-27.631 0-50.133-21.957-51.011-49.374l-0.002-113.356c0.881-27.498 23.383-49.455 51.014-49.455 0.459 0 0.916 0.006 1.372 0.018l215.284-0.001c0.388-0.011 0.846-0.017 1.305-0.017 27.631 0 50.133 21.957 51.011 49.374zM98.724 346.873v-119.355h26.719v-17.599h-71.197v17.279h22.239v119.674zM178.721 245.277h-22.239v63.997c0.181 2.394 0.284 5.185 0.284 8s-0.103 5.606-0.306 8.369c-1.738 4.59-9.898 9.87-13.098-0.369-0.159-2.392-0.25-5.185-0.25-8s0.091-5.608 0.27-8.377l-0.020-63.62h-22.399v63.197c0 9.6 0 16.959 0 20.159 0 5.76 0 12.479 5.76 15.999 3.122 1.373 6.761 2.173 10.587 2.173 9.934 0 18.609-5.389 23.262-13.404l0.069 12.991h17.919v-100.956zM249.918 318.234v-52.958c0-20.159-15.2-31.999-35.678-15.999v-39.358h-22.239v135.994h18.239l1.6-8.479c23.359 21.279 38.078 6.56 38.078-19.039zM319.995 311.355h-15.999s0 1.44 0 2.24v9.279c0 5.037-4.083 9.12-9.12 9.12h-3.2c-5.037 0-9.12-4.083-9.12-9.12v-24.478h37.438v-14.399c0.023-1.224 0.037-2.668 0.037-4.114 0-8.074-0.42-16.050-1.24-23.907-2.637-18.057-29.356-21.097-42.795-11.338-4.3 3.097-7.541 7.423-9.228 12.462-1.902 6.195-2.969 13.113-2.969 20.279 0 0.808 0.013 1.612 0.040 2.414l-0.003 31.882c-0.48 52.318 63.357 44.798 56.158-0.32zM233.919 139.682c1.162 2.736 2.969 5.006 5.237 6.69 2.497 1.639 5.503 2.596 8.733 2.596 0.151 0 0.301-0.002 0.451-0.006 0.010 0.001 0.048 0.001 0.087 0.001 3.146 0 6.054-1.020 8.411-2.748 2.646-2.062 4.769-4.749 6.148-7.842l0.051 8.669h24.959v-105.435h-19.999v82.076c-0.777 3.763-4.062 6.552-8 6.552s-7.223-2.789-7.99-6.499l-0.009-82.129h-20.639v70.397c0 9.12 0 15.039 0 18.239 0.379 3.493 1.284 6.687 2.639 9.632zM158.722 80.005c-0.022-0.746-0.036-1.623-0.036-2.503 0-7.52 0.947-14.818 2.727-21.783 2.851-10.368 12.727-18.307 24.456-18.307 0.468 0 0.933 0.012 1.395 0.037 0.154-0.009 0.411-0.012 0.669-0.012 5.105 0 9.92 1.245 14.156 3.449 3.728 1.969 6.915 4.901 9.21 8.461 2.133 3.263 3.736 6.953 4.654 10.906 0.877 4.763 1.353 9.978 1.353 15.304 0 0.776-0.010 1.549-0.030 2.32l0.002 26.605c0.024 0.989 0.038 2.155 0.038 3.323 0 6.443-0.421 12.788-1.237 19.008-0.759 4.101-2.495 8.41-4.962 12.2-2.238 3.654-5.5 6.66-9.385 8.607-3.919 1.881-8.364 2.945-13.058 2.945-0.181 0-0.362-0.002-0.542-0.005-0.327 0.012-0.744 0.020-1.163 0.020-4.748 0-9.288-0.888-13.464-2.505-3.532-1.437-6.641-3.98-8.821-7.204-2.261-3.453-3.883-7.435-4.655-11.714-0.964-5.673-1.499-11.983-1.499-18.418 0-0.906 0.011-1.809 0.032-2.71l-0.002-28.025zM178.080 121.923c-0.051 0.377-0.079 0.814-0.079 1.257 0 5.479 4.441 9.92 9.92 9.92s9.92-4.441 9.92-9.92c0-0.443-0.029-0.88-0.085-1.308l0.006-56.107c0.051-0.377 0.079-0.814 0.079-1.257 0-5.479-4.441-9.92-9.92-9.92s-9.92 4.441-9.92 9.92c0 0.443 0.029 0.88 0.085 1.308zM109.603 150.402h23.359v-80.957l27.039-69.437h-25.599l-14.72 51.518-14.239-51.518h-25.439l29.439 69.437z"></path>
</svg>
