<?xml version="1.0" encoding="utf-8"?>
<!-- Generated by IcoMoon.io -->
<!DOCTYPE svg PUBLIC "-//W3C//DTD SVG 1.1//EN" "http://www.w3.org/Graphics/SVG/1.1/DTD/svg11.dtd">
<svg version="1.1" xmlns="http://www.w3.org/2000/svg" xmlns:xlink="http://www.w3.org/1999/xlink" width="384" height="384" viewBox="0 0 384 384">
<g id="icomoon-ignore">
</g>
<path fill="#000" d="M383.998 235.392v148.607h-82.367v-138.623c0-34.752-11.904-58.559-41.664-58.559-19.717 0.411-36.305 13.354-42.148 31.168-1.836 5.755-2.841 12.007-2.841 18.495 0 0.968 0.022 1.931 0.066 2.888l-0.004 144.631h-82.367s1.152-234.813 0-259.005h82.367v36.672c13.977-25.702 40.778-42.855 71.585-42.855 0.889 0 1.774 0.014 2.655 0.042 54.207-0.003 94.719 37.053 94.719 116.54zM46.657 0.002c-0.171-0.003-0.373-0.004-0.576-0.004-24.708 0-44.739 20.030-44.739 44.739 0 24.506 19.703 44.411 44.132 44.735h0.031c24.707 0 44.735-20.028 44.735-44.735s-20.028-44.735-44.735-44.735zM4.802 383.998h82.367v-259.005h-82.367z"></path>
</svg>
