<?xml version="1.0" encoding="utf-8"?>
<!-- Generated by IcoMoon.io -->
<!DOCTYPE svg PUBLIC "-//W3C//DTD SVG 1.1//EN" "http://www.w3.org/Graphics/SVG/1.1/DTD/svg11.dtd">
<svg version="1.1" xmlns="http://www.w3.org/2000/svg" xmlns:xlink="http://www.w3.org/1999/xlink" width="384" height="384" viewBox="0 0 384 384">
<g id="icomoon-ignore">
</g>
<path fill="#000" d="M192 34.909c51.316 0 57.425 0 77.673 1.047 12.602 0.257 24.563 2.668 35.64 6.876 16.091 6.353 29.154 19.416 35.6 35.806 4.118 10.777 6.528 22.74 6.781 35.231 1.398 20.88 1.398 26.814 1.398 78.131s0 57.425-1.047 77.498c-0.254 12.601-2.664 24.563-6.876 35.638-6.353 16.093-19.416 29.154-35.806 35.602-10.777 4.114-22.738 6.525-35.231 6.781-20.707 1.572-26.816 1.572-78.132 1.572s-57.425 0-77.498-1.047c-12.602-0.257-24.563-2.668-35.64-6.876-16.091-6.353-29.154-19.416-35.6-35.806-4.114-10.777-6.525-22.739-6.781-35.231-1.572-20.882-1.572-26.816-1.572-78.132s0-57.25 1.047-77.498c0.257-12.602 2.668-24.563 6.876-35.64 6.353-16.091 19.416-29.154 35.806-35.6 10.777-4.114 22.738-6.525 35.231-6.781 20.882-1.572 26.816-1.572 78.132-1.572zM192 0c-52.363 0-58.647 0-79.244 1.222-16.825 0.338-32.794 3.575-47.569 9.227-24.936 9.861-45.053 29.978-55.007 55.215-5.559 14.474-8.795 30.444-9.13 47.125-1.049 20.565-1.049 26.849-1.049 79.213s0 58.647 1.222 79.244c0.338 16.825 3.575 32.794 9.227 47.569 9.861 24.936 29.978 45.053 55.215 55.007 14.474 5.559 30.444 8.794 47.125 9.13 20.565 1.049 26.849 1.049 79.213 1.049s58.647 0 79.244-1.222c16.825-0.338 32.794-3.575 47.569-9.227 24.936-9.861 45.053-29.978 55.007-55.215 5.559-14.474 8.794-30.444 9.13-47.125 1.049-20.565 1.049-26.849 1.049-79.213s0-58.647-1.222-79.243c-0.338-16.825-3.575-32.794-9.227-47.569-9.861-24.936-29.978-45.053-55.215-55.007-14.474-5.559-30.444-8.795-47.125-9.13-20.565-1.049-26.849-1.049-79.213-1.049zM192 93.382c-54.465 0-98.618 44.153-98.618 98.618s44.153 98.618 98.618 98.618c54.465 0 98.618-44.153 98.618-98.618s-44.153-98.618-98.618-98.618zM192 256.059c-35.379 0-64.059-28.68-64.059-64.059s28.68-64.059 64.059-64.059c35.379 0 64.059 28.68 64.059 64.059s-28.68 64.059-64.059 64.059zM317.498 89.541c0-12.725-10.315-23.040-23.040-23.040s-23.040 10.315-23.040 23.040c0 12.725 10.315 23.040 23.040 23.040s23.040-10.315 23.040-23.040z"></path>
</svg>
